<svg width="717" height="152" viewBox="0 0 717 152" fill="none" xmlns="http://www.w3.org/2000/svg">
<g clip-path="url(#clip0)">
<path d="M44.8899 52.47V63.78C47.6466 60.639 49.572 56.8571 50.4899 52.78C48.6499 52.3922 46.7615 52.2876 44.8899 52.47Z" fill="black"/>
<path d="M148.96 56.61C148.753 56.4832 148.561 56.3322 148.39 56.16L126.86 34.64L128.55 45.64C128.673 46.4514 128.47 47.2787 127.985 47.9404C127.499 48.6021 126.771 49.0443 125.96 49.17C125.744 49.1945 125.526 49.1945 125.31 49.17C124.31 49.11 123.31 49.08 122.31 49.08C116.187 49.0713 110.113 50.1689 104.38 52.32C103.778 62.5037 100.379 72.3241 94.5572 80.7009C88.735 89.0777 80.7152 95.6864 71.3799 99.8C71.3799 99.89 71.3799 99.98 71.3799 100.07C71.3684 108.972 73.6872 117.722 78.1056 125.45C82.5241 133.178 88.8884 139.615 96.5658 144.12C104.243 148.626 112.966 151.044 121.868 151.133C130.769 151.223 139.539 148.981 147.305 144.63C155.072 140.279 161.564 133.972 166.137 126.334C170.71 118.696 173.204 109.995 173.371 101.094C173.538 92.1941 171.373 83.405 167.09 75.6008C162.808 67.7967 156.557 61.2495 148.96 56.61Z" fill="url(#paint0_linear)"/>
<path d="M98.31 49.15C98.3107 40.5727 96.0672 32.1445 91.8024 24.7026C87.5376 17.2608 81.3999 11.0643 73.999 6.72868C66.5982 2.39309 58.1918 0.0693287 49.6149 -0.0117786C41.038 -0.0928859 32.5891 2.07149 25.1076 6.26634C17.626 10.4612 11.3723 16.5405 6.96749 23.9004C2.56271 31.2603 0.160225 39.6445 -0.0012911 48.2203C-0.162807 56.7961 1.92227 65.2649 6.04679 72.7854C10.1713 80.3059 16.1917 86.6164 23.51 91.09C23.7172 91.2167 23.9086 91.3678 24.08 91.54L44.65 112.11L43.06 101.84C42.9975 101.437 43.0152 101.025 43.1122 100.629C43.2091 100.232 43.3834 99.859 43.6249 99.5301C43.8665 99.2012 44.1706 98.9232 44.5198 98.7121C44.869 98.5011 45.2565 98.361 45.66 98.3C45.8729 98.28 46.0871 98.28 46.3 98.3C47.3 98.36 48.24 98.39 49.15 98.39C62.1832 98.3741 74.678 93.1897 83.8938 83.9738C93.1097 74.758 98.2941 62.2631 98.31 49.23V49.15Z" fill="url(#paint1_linear)"/>
<path d="M61.7359 32C62.2906 32 62.6123 32.1096 62.7621 32.3343C62.952 32.7575 63.0302 33.2214 62.9895 33.6826C63.0063 34.0073 62.9415 34.3312 62.8009 34.6252C62.698 34.8305 62.5433 35.006 62.3516 35.1349C62.1924 35.2374 62.0126 35.3047 61.8247 35.3322C61.6872 35.3553 61.5481 35.3682 61.4086 35.3706H50.3202V65.9088C50.3375 66.1007 50.2874 66.2926 50.1783 66.4523C50.0692 66.612 49.9077 66.7298 49.7211 66.7857C49.2858 66.9337 48.8279 67.006 48.3676 66.9994C47.9009 67.0076 47.4365 66.9314 46.9975 66.7747C46.8155 66.7163 46.6586 66.5992 46.552 66.4422C46.4454 66.2852 46.3952 66.0973 46.4095 65.9088V35.3542H35.5207C35.3563 35.3513 35.1927 35.3311 35.0326 35.2939C34.8521 35.249 34.6848 35.1626 34.5445 35.0418C34.3769 34.8994 34.2442 34.7214 34.1562 34.5211C34.0454 34.2651 33.9924 33.9883 34.0009 33.71C33.9967 33.4169 34.0134 33.1238 34.0508 32.8331C34.0703 32.6487 34.1309 32.4709 34.2283 32.3124C34.2712 32.2494 34.3269 32.196 34.3918 32.1554C34.4568 32.1149 34.5295 32.0881 34.6055 32.0767C34.8124 32.0405 35.0223 32.024 35.2323 32.0274L61.7359 32Z" fill="white"/>
<path d="M257.96 32.5974C258.96 32.5974 259.54 32.7974 259.81 33.2074C260.152 33.9796 260.293 34.8259 260.22 35.6674C260.25 36.2599 260.133 36.8508 259.88 37.3874C259.695 37.7618 259.416 38.0822 259.07 38.3174C258.783 38.5043 258.459 38.6271 258.12 38.6774C257.872 38.7195 257.621 38.7429 257.37 38.7474H237.38V94.4674C237.411 94.8175 237.321 95.1678 237.124 95.4592C236.928 95.7506 236.636 95.9653 236.3 96.0674C235.515 96.3374 234.69 96.4693 233.86 96.4574C233.019 96.4722 232.182 96.3333 231.39 96.0474C231.062 95.9408 230.779 95.7271 230.587 95.4406C230.395 95.1541 230.304 94.8114 230.33 94.4674V38.7174H210.7C210.404 38.7122 210.109 38.6753 209.82 38.6074C209.495 38.5255 209.193 38.3679 208.94 38.1474C208.638 37.8876 208.399 37.5628 208.24 37.1974C208.04 36.7302 207.945 36.2252 207.96 35.7174C207.953 35.1826 207.983 34.6479 208.05 34.1174C208.085 33.7809 208.195 33.4565 208.37 33.1674C208.447 33.0525 208.548 32.955 208.665 32.881C208.782 32.8069 208.913 32.758 209.05 32.7374C209.423 32.6713 209.801 32.6412 210.18 32.6474L257.96 32.5974Z" fill="#EC1F31"/>
<path d="M311.96 81.7174H276.96L272.96 93.1074C272.746 93.7966 272.407 94.4407 271.96 95.0074C271.66 95.4259 271.266 95.7683 270.81 96.0074C270.4 96.2066 269.955 96.3222 269.5 96.3474C269.03 96.3474 268.5 96.3974 268.03 96.3974C267.588 96.3955 267.151 96.3107 266.74 96.1474C266.348 95.9909 266.015 95.7144 265.79 95.3574C265.542 94.9159 265.424 94.4131 265.45 93.9074C265.481 93.1481 265.633 92.3987 265.9 91.6874L285.4 38.4174C285.78 37.2753 286.304 36.1865 286.96 35.1774C287.444 34.4274 288.073 33.7815 288.81 33.2774C289.476 32.8334 290.218 32.518 291 32.3474C291.849 32.1733 292.714 32.0895 293.58 32.0974H295.39C296.24 32.0898 297.088 32.1736 297.92 32.3474C298.705 32.5161 299.452 32.8316 300.12 33.2774C300.852 33.787 301.48 34.432 301.97 35.1774C302.624 36.1771 303.148 37.2557 303.53 38.3874L323.02 91.6574C323.297 92.3652 323.442 93.1174 323.45 93.8774C323.465 94.3846 323.341 94.8861 323.09 95.3274C322.87 95.6812 322.545 95.9573 322.16 96.1174C321.761 96.2827 321.332 96.3676 320.9 96.3674C320.39 96.3674 319.9 96.3674 319.43 96.3174C318.947 96.2959 318.475 96.1672 318.047 95.9406C317.62 95.714 317.249 95.3953 316.96 95.0074C316.538 94.4322 316.217 93.7898 316.01 93.1074L311.96 81.7174ZM279.08 76.0674H309.92L297.13 40.6474C296.917 39.9515 296.578 39.3007 296.13 38.7274C295.988 38.5507 295.81 38.4053 295.609 38.3003C295.407 38.1954 295.187 38.1331 294.96 38.1174H294.05C293.816 38.1293 293.586 38.1897 293.376 38.2947C293.166 38.3996 292.98 38.547 292.83 38.7274C292.386 39.3033 292.047 39.9534 291.83 40.6474L279.08 76.0674Z" fill="#EC1F31"/>
<path d="M363.34 38.7874H350.34V94.4674C350.363 94.8259 350.257 95.1808 350.04 95.4674C349.83 95.7269 349.559 95.9298 349.25 96.0574C348.891 96.2148 348.51 96.316 348.12 96.3574C347.7 96.3574 347.26 96.4174 346.81 96.4174C345.973 96.4325 345.138 96.3109 344.34 96.0574C344.008 95.9572 343.721 95.7451 343.528 95.457C343.334 95.1689 343.247 94.8227 343.28 94.4774V35.5774C343.287 35.1647 343.391 34.7593 343.583 34.3944C343.776 34.0295 344.053 33.7153 344.39 33.4774C345.353 32.8231 346.509 32.513 347.67 32.5974H363.36C367.046 32.4866 370.734 32.7682 374.36 33.4374C377.47 33.9926 380.454 35.1036 383.17 36.7174C385.634 38.2015 387.681 40.2866 389.12 42.7774C390.643 45.5915 391.392 48.7593 391.29 51.9574V52.4574C391.319 54.6133 391.005 56.7601 390.36 58.8174C389.795 60.6322 388.9 62.3272 387.72 63.8174C386.545 65.2584 385.139 66.495 383.56 67.4774C381.865 68.5376 380.04 69.3745 378.13 69.9674L391.38 93.4874C391.546 93.7032 391.656 93.9569 391.7 94.2258C391.744 94.4946 391.72 94.7701 391.63 95.0274C391.41 95.4384 391.058 95.7627 390.63 95.9474C390.108 96.1875 389.551 96.3428 388.98 96.4074C388.433 96.4744 387.882 96.5111 387.33 96.5174C386.687 96.5152 386.049 96.3932 385.45 96.1574C384.84 95.9176 384.336 95.467 384.03 94.8874L371.03 71.5074C369.89 71.6574 368.74 71.7574 367.57 71.7974C366.4 71.8374 365.2 71.8674 363.93 71.8674H355.52C355.177 71.888 354.834 71.8218 354.523 71.675C354.212 71.5282 353.943 71.3055 353.74 71.0274C353.294 70.3538 353.076 69.5543 353.12 68.7474C353.064 67.9332 353.29 67.1245 353.76 66.4574C353.979 66.1932 354.257 65.984 354.571 65.8468C354.885 65.7096 355.228 65.6481 355.57 65.6674H363.96C366.812 65.6957 369.661 65.4614 372.47 64.9674C374.703 64.6023 376.853 63.8438 378.82 62.7274C380.482 61.7689 381.862 60.3892 382.82 58.7274C383.807 56.9213 384.294 54.8845 384.23 52.8274V51.5974C384.264 49.7375 383.884 47.8933 383.12 46.1974C382.327 44.569 381.107 43.1865 379.59 42.1974C377.669 40.9744 375.535 40.123 373.3 39.6874C370.226 39.0679 367.095 38.7796 363.96 38.8274H363.33L363.34 38.7874Z" fill="#EC1F31"/>
<path d="M411.37 96.4574C411.051 96.4531 410.734 96.423 410.42 96.3674C410.06 96.3085 409.718 96.1683 409.42 95.9574C409.088 95.714 408.823 95.3906 408.65 95.0174C408.418 94.5134 408.308 93.9618 408.33 93.4074C408.284 92.9593 408.337 92.5067 408.486 92.0816C408.635 91.6565 408.875 91.2692 409.19 90.9474C409.799 90.4464 410.572 90.1866 411.36 90.2174H411.96C414.52 90.2702 417.076 89.981 419.56 89.3574C421.374 88.8883 423.074 88.0584 424.56 86.9174C425.834 85.8936 426.86 84.5944 427.56 83.1174C428.298 81.5307 428.806 79.8472 429.07 78.1174C429.38 76.1315 429.553 74.1269 429.59 72.1174C429.59 69.9574 429.66 67.6974 429.66 65.3174V35.0374C429.626 34.566 429.732 34.0951 429.963 33.6828C430.194 33.2705 430.54 32.9349 430.96 32.7174C431.789 32.24 432.733 31.998 433.69 32.0174C434.546 31.9332 435.404 32.1566 436.11 32.6474C436.352 32.8794 436.54 33.1618 436.661 33.4746C436.782 33.7873 436.833 34.1228 436.81 34.4574V64.4574C436.81 67.3274 436.81 70.0974 436.68 72.7874C436.604 75.3302 436.316 77.8623 435.82 80.3574C435.373 82.622 434.613 84.8132 433.56 86.8674C432.509 88.8684 431.023 90.6079 429.21 91.9574C427.077 93.5031 424.667 94.6235 422.11 95.2574C418.668 96.1144 415.127 96.5112 411.58 96.4374L411.37 96.4574Z" fill="#EC1F31"/>
<path d="M468.96 94.4674C468.981 94.8241 468.879 95.1771 468.67 95.4674C468.454 95.7247 468.18 95.9269 467.87 96.0574C467.518 96.2135 467.143 96.3147 466.76 96.3574C466.36 96.3574 465.93 96.4174 465.48 96.4174C464.628 96.4345 463.779 96.306 462.97 96.0374C462.642 95.9365 462.357 95.7274 462.163 95.4441C461.969 95.1608 461.876 94.8201 461.9 94.4774V34.4774C461.901 34.1156 462 33.7608 462.187 33.4509C462.374 33.1409 462.641 32.8874 462.96 32.7174C463.743 32.2658 464.638 32.0472 465.54 32.0874C466.404 32.0531 467.263 32.2209 468.05 32.5774C468.389 32.7818 468.663 33.0783 468.84 33.4324C469.017 33.7865 469.09 34.1835 469.05 34.5774L468.96 94.4674Z" fill="#EC1F31"/>
<path d="M530.72 96.2974C529.879 96.1727 529.059 95.9374 528.28 95.5974C527.406 95.2183 526.604 94.6905 525.91 94.0374C525.133 93.2962 524.591 92.3436 524.35 91.2974L508.96 39.7174C508.898 39.4536 508.775 39.2079 508.601 38.9996C508.428 38.7914 508.208 38.6263 507.96 38.5174C507.535 38.357 507.085 38.2724 506.63 38.2674C506.464 38.257 506.297 38.257 506.13 38.2674C505.913 38.2994 505.701 38.3599 505.5 38.4474C505.277 38.5413 505.082 38.6891 504.93 38.8774C504.756 39.0863 504.654 39.3459 504.64 39.6174L499.71 93.9374C499.639 94.4388 499.4 94.901 499.03 95.2474C498.673 95.5759 498.26 95.8368 497.81 96.0174C497.363 96.1985 496.891 96.3131 496.41 96.3574C495.972 96.4031 495.531 96.4265 495.09 96.4274C494.704 96.4917 494.308 96.4606 493.937 96.3368C493.566 96.2131 493.23 96.0004 492.96 95.7174C492.574 94.9471 492.472 94.0657 492.67 93.2274L497.67 37.8674C497.765 36.6572 498.229 35.5053 499 34.5674C499.66 33.8227 500.481 33.238 501.4 32.8574C502.239 32.5012 503.131 32.285 504.04 32.2174C504.92 32.1574 505.61 32.1274 506.12 32.1274H506.8C507.61 32.1382 508.419 32.205 509.22 32.3274C510.152 32.4687 511.058 32.745 511.91 33.1474C512.798 33.5626 513.596 34.1468 514.26 34.8674C515.014 35.7125 515.516 36.7517 515.71 37.8674L531.09 89.4674C531.24 89.9574 531.47 90.2374 531.79 90.3074C532.018 90.3709 532.253 90.4078 532.49 90.4174C532.727 90.4085 532.962 90.3716 533.19 90.3074C533.51 90.2374 533.74 89.9574 533.89 89.4674L549.27 37.8674C549.464 36.7517 549.966 35.7125 550.72 34.8674C551.384 34.1468 552.182 33.5626 553.07 33.1474C553.922 32.745 554.828 32.4687 555.76 32.3274C556.561 32.2054 557.37 32.1385 558.18 32.1274H558.86C559.37 32.1274 560.06 32.1274 560.94 32.2174C561.849 32.2839 562.741 32.5002 563.58 32.8574C564.499 33.238 565.32 33.8227 565.98 34.5674C566.751 35.5064 567.218 36.6571 567.32 37.8674L572.32 93.2274C572.516 94.0668 572.41 94.9486 572.02 95.7174C571.759 96.0073 571.432 96.229 571.066 96.3632C570.7 96.4974 570.306 96.54 569.92 96.4874C569.483 96.4866 569.045 96.4633 568.61 96.4174C568.126 96.3742 567.651 96.2596 567.2 96.0774C566.751 95.8945 566.338 95.6338 565.98 95.3074C565.614 94.9601 565.377 94.4978 565.31 93.9974L560.38 39.6774C560.362 39.4049 560.257 39.1454 560.08 38.9374C559.935 38.7548 559.751 38.6077 559.54 38.5074C559.346 38.4187 559.141 38.3581 558.93 38.3274C558.764 38.317 558.597 38.317 558.43 38.3274C557.966 38.3339 557.506 38.4184 557.07 38.5774C556.823 38.6876 556.604 38.8531 556.431 39.0611C556.257 39.2691 556.134 39.5142 556.07 39.7774L540.7 91.3774C540.458 92.4186 539.924 93.3691 539.16 94.1174C538.488 94.764 537.706 95.2856 536.85 95.6574C536.085 95.9872 535.282 96.2222 534.46 96.3574C533.845 96.4613 533.224 96.5215 532.6 96.5374H532.51C531.909 96.496 531.311 96.4158 530.72 96.2974Z" fill="#EC1F31"/>
<path d="M596.3 87.8674C596.286 87.5115 596.388 87.1607 596.59 86.8674C596.795 86.6063 597.059 86.3973 597.36 86.2574C597.705 86.1 598.073 85.9987 598.45 85.9574C598.85 85.9574 599.27 85.8974 599.69 85.8974C600.513 85.8756 601.333 86.0044 602.11 86.2774C602.431 86.3973 602.704 86.6204 602.885 86.9117C603.066 87.2031 603.145 87.5462 603.11 87.8874V94.5274C603.13 94.884 603.028 95.2367 602.82 95.5274C602.606 95.7738 602.344 95.9745 602.05 96.1174C601.706 96.2759 601.337 96.374 600.96 96.4074C600.549 96.4559 600.134 96.4793 599.72 96.4774C598.903 96.4928 598.09 96.3607 597.32 96.0874C597.003 95.9769 596.732 95.7631 596.55 95.4803C596.369 95.1974 596.288 94.8618 596.32 94.5274L596.3 87.8674Z" fill="#EC1F31"/>
<path d="M629.81 34.0474C629.794 33.6898 629.9 33.3374 630.11 33.0474C630.324 32.7831 630.598 32.5739 630.91 32.4374C631.265 32.2799 631.643 32.1787 632.03 32.1374C632.45 32.0974 632.88 32.0774 633.32 32.0774C634.169 32.056 635.015 32.1846 635.82 32.4574C636.141 32.5773 636.414 32.8004 636.594 33.0917C636.775 33.3831 636.855 33.7262 636.82 34.0674V40.7174C636.844 41.0776 636.733 41.4338 636.51 41.7174C636.292 41.9686 636.022 42.1698 635.72 42.3074C635.365 42.4658 634.987 42.5639 634.6 42.5974C634.171 42.6462 633.741 42.6695 633.31 42.6674C632.47 42.6826 631.634 42.5506 630.84 42.2774C630.517 42.1723 630.239 41.9608 630.052 41.6774C629.865 41.3941 629.779 41.0556 629.81 40.7174V34.0474Z" fill="#EC1F31"/>
<path d="M636.87 94.9474C636.875 95.0864 636.851 95.2249 636.799 95.354C636.748 95.4832 636.669 95.6001 636.57 95.6974C636.341 95.8992 636.072 96.0492 635.78 96.1374C635.421 96.2566 635.048 96.3305 634.67 96.3574C634.27 96.3574 633.84 96.4074 633.38 96.4074C632.534 96.4246 631.69 96.327 630.87 96.1174C630.17 95.9274 629.81 95.5374 629.81 94.9474V49.8474C629.817 49.5454 629.916 49.2529 630.095 49.0095C630.274 48.7662 630.524 48.5839 630.81 48.4874C631.62 48.1379 632.498 47.9739 633.38 48.0074C634.233 47.98 635.084 48.1088 635.89 48.3874C636.204 48.4936 636.473 48.7022 636.654 48.9796C636.836 49.257 636.919 49.5872 636.89 49.9174L636.87 94.9474Z" fill="#EC1F31"/>
<path d="M688.96 32.0574C692.568 31.9942 696.17 32.3873 699.68 33.2274C702.368 33.8796 704.918 35.0073 707.21 36.5574C709.16 37.9211 710.802 39.679 712.03 41.7174C713.267 43.7484 714.203 45.9479 714.81 48.2474C715.475 50.7342 715.901 53.2792 716.08 55.8474C716.27 58.5274 716.37 61.3074 716.37 64.1674V64.4874C716.37 67.3474 716.27 70.1274 716.08 72.8074C715.901 75.3756 715.475 77.9206 714.81 80.4074C714.203 82.7069 713.267 84.9064 712.03 86.9374C710.785 88.9617 709.129 90.7025 707.17 92.0474C704.878 93.5975 702.328 94.7252 699.64 95.3774C696.141 96.1973 692.553 96.5736 688.96 96.4974H688.74C685.111 96.5662 681.489 96.1731 677.96 95.3274C675.271 94.6771 672.72 93.5492 670.43 91.9974C668.469 90.6509 666.81 88.9105 665.56 86.8874C664.331 84.8522 663.395 82.6539 662.78 80.3574C662.113 77.8713 661.691 75.3258 661.52 72.7574C661.32 70.0774 661.22 67.2974 661.22 64.4374V64.1174C661.22 61.2574 661.32 58.4774 661.52 55.7974C661.691 53.229 662.113 50.6835 662.78 48.1974C663.406 45.9172 664.348 43.7359 665.58 41.7174C666.83 39.6943 668.489 37.9539 670.45 36.6074C672.73 35.0402 675.274 33.8953 677.96 33.2274C681.469 32.3868 685.071 31.9937 688.68 32.0574H688.96ZM688.33 38.2974C685.71 38.2481 683.095 38.5371 680.55 39.1574C678.592 39.6283 676.738 40.4554 675.08 41.5974C673.644 42.6028 672.435 43.8971 671.53 45.3974C670.621 46.9566 669.947 48.6414 669.53 50.3974C669.041 52.3656 668.73 54.3736 668.6 56.3974C668.453 58.5574 668.38 60.8274 668.38 63.2074V65.3274C668.38 67.7074 668.453 69.9774 668.6 72.1374C668.731 74.1611 669.042 76.169 669.53 78.1374C669.947 79.8934 670.621 81.5782 671.53 83.1374C672.435 84.6377 673.644 85.932 675.08 86.9374C676.738 88.0794 678.592 88.9065 680.55 89.3774C683.095 89.9977 685.71 90.2867 688.33 90.2374H689.41C692.023 90.2874 694.631 89.9983 697.17 89.3774C699.12 88.9027 700.967 88.0758 702.62 86.9374C704.055 85.932 705.264 84.6377 706.17 83.1374C707.079 81.5782 707.753 79.8934 708.17 78.1374C708.649 76.1678 708.957 74.1602 709.09 72.1374C709.243 69.9774 709.32 67.7074 709.32 65.3274V63.2174C709.32 60.8374 709.243 58.5674 709.09 56.4074C708.958 54.3845 708.65 52.3769 708.17 50.4074C707.753 48.6514 707.079 46.9666 706.17 45.4074C705.264 43.9071 704.055 42.6128 702.62 41.6074C700.967 40.469 699.12 39.6421 697.17 39.1674C694.631 38.5465 692.023 38.2574 689.41 38.3074L688.33 38.2974Z" fill="#EC1F31"/>
<path d="M144.35 99.72L149.47 92.16L153.52 104.31C153.52 104.31 158.38 115.11 145.7 118.31C133.02 121.51 107.41 119.39 107.41 119.39C107.41 119.39 95.2201 115.89 99.2701 104.01C99.2701 104.01 101.52 96.9 104.67 95.19C104.67 95.19 100.8 110.13 108.81 112.29L143.96 111.84C143.96 111.84 151.24 111.84 148.81 106.71L144.35 99.72Z" fill="white"/>
<path d="M127.28 87.17L128.72 85.39C128.918 85.1456 129.166 84.9464 129.447 84.8055C129.728 84.6646 130.036 84.5853 130.351 84.573C130.665 84.5607 130.978 84.6157 131.269 84.7341C131.561 84.8526 131.824 85.0319 132.04 85.26L136.79 90.32C137.135 90.6895 137.343 91.1667 137.377 91.6712C137.412 92.1757 137.272 92.6768 136.98 93.09L135.5 95.18C135.349 95.3966 135.153 95.5776 134.924 95.7103C134.696 95.8429 134.441 95.924 134.178 95.9478C133.915 95.9717 133.65 95.9376 133.402 95.8482C133.153 95.7587 132.927 95.616 132.74 95.43L127.45 90.22C127.047 89.8239 126.807 89.2919 126.775 88.7279C126.744 88.1638 126.924 87.6084 127.28 87.17Z" fill="white"/>
<path d="M117.64 86.03L119.08 84.24C119.278 83.9965 119.525 83.7982 119.806 83.6582C120.087 83.5183 120.394 83.4401 120.708 83.4287C121.021 83.4173 121.333 83.4731 121.624 83.5924C121.914 83.7116 122.175 83.8915 122.39 84.12L127.15 89.17C127.495 89.5395 127.703 90.0167 127.737 90.5212C127.772 91.0257 127.631 91.5267 127.34 91.94L125.86 94.04C125.707 94.2545 125.51 94.4333 125.281 94.564C125.052 94.6947 124.798 94.7742 124.535 94.7971C124.273 94.8199 124.009 94.7855 123.761 94.6962C123.513 94.6069 123.288 94.4649 123.1 94.28L117.81 89.07C117.406 88.6767 117.164 88.1461 117.133 87.5831C117.101 87.0201 117.282 86.4658 117.64 86.03Z" fill="white"/>
</g>
<defs>
<linearGradient id="paint0_linear" x1="-44.5001" y1="92.87" x2="57.4699" y2="92.87" gradientUnits="userSpaceOnUse">
<stop stop-color="#EE2A7B"/>
<stop offset="0.12" stop-color="#E92A7C"/>
<stop offset="0.27" stop-color="#DA2B7D"/>
<stop offset="0.43" stop-color="#C22C80"/>
<stop offset="0.59" stop-color="#A02D84"/>
<stop offset="0.77" stop-color="#742E8A"/>
<stop offset="0.95" stop-color="#3F3090"/>
<stop offset="1" stop-color="#2E3192"/>
</linearGradient>
<linearGradient id="paint1_linear" x1="-7.94337e-06" y1="56.05" x2="98.31" y2="56.05" gradientUnits="userSpaceOnUse">
<stop stop-color="#EC1F6A"/>
<stop offset="0.24" stop-color="#EC1F65"/>
<stop offset="0.54" stop-color="#EC1F56"/>
<stop offset="0.86" stop-color="#EC1F3E"/>
<stop offset="1" stop-color="#EC1F31"/>
</linearGradient>
<clipPath id="clip0">
<rect width="716.37" height="151.1" fill="white"/>
</clipPath>
</defs>
</svg>
